<svg width="31" height="30" viewBox="0 0 31 30" fill="none" xmlns="http://www.w3.org/2000/svg">
<path d="M3.0064 2.46802H5.15352C6.48621 2.46802 7.53509 3.61561 7.42403 4.93597L6.39983 17.2264C6.35984 17.7025 6.41919 18.1818 6.57411 18.6338C6.72903 19.0858 6.97616 19.5007 7.29982 19.8522C7.62348 20.2037 8.01662 20.4841 8.45434 20.6757C8.89206 20.8673 9.3648 20.9659 9.84262 20.9653H22.9844C24.7614 20.9653 26.3162 19.5092 26.4519 17.7446L27.1183 8.48981C27.2663 6.44142 25.7115 4.77555 23.6508 4.77555H7.72018M11.6442 9.87186H26.4519M20.5905 27.1475C20.9996 27.1475 21.392 26.985 21.6812 26.6957C21.9705 26.4065 22.133 26.0141 22.133 25.605C22.133 25.1959 21.9705 24.8036 21.6812 24.5143C21.392 24.2251 20.9996 24.0626 20.5905 24.0626C20.1814 24.0626 19.7891 24.2251 19.4998 24.5143C19.2106 24.8036 19.0481 25.1959 19.0481 25.605C19.0481 26.0141 19.2106 26.4065 19.4998 26.6957C19.7891 26.985 20.1814 27.1475 20.5905 27.1475ZM10.7187 27.1475C11.1278 27.1475 11.5202 26.985 11.8094 26.6957C12.0987 26.4065 12.2612 26.0141 12.2612 25.605C12.2612 25.1959 12.0987 24.8036 11.8094 24.5143C11.5202 24.2251 11.1278 24.0626 10.7187 24.0626C10.3097 24.0626 9.91732 24.2251 9.62805 24.5143C9.33878 24.8036 9.17627 25.1959 9.17627 25.605C9.17627 26.0141 9.33878 26.4065 9.62805 26.6957C9.91732 26.985 10.3097 27.1475 10.7187 27.1475Z" stroke="#751AA0" stroke-width="2.5" stroke-miterlimit="10" stroke-linecap="round" stroke-linejoin="round"/>
</svg>
